<svg width="176" height="209" viewBox="0 0 176 209" fill="none" xmlns="http://www.w3.org/2000/svg">
<path d="M23.7327 182.596H6.72319C5.18995 182.596 3.8803 182.34 2.77827 181.829C1.66028 181.318 1.10128 180.695 1.10128 179.976H0.829766V185.471H1.10128C1.10128 184.768 1.66028 184.145 2.77827 183.634C3.8803 183.123 5.18995 182.867 6.72319 182.867H17.2483L0.829767 194.542V201.57H1.10128C1.10128 201.091 1.38877 200.659 1.96374 200.26C2.52273 199.861 3.25741 199.541 4.16778 199.302C5.07815 199.078 6.03643 198.95 7.05859 198.95H17.8392C19.3725 198.95 20.6981 199.206 21.8001 199.717C22.9181 200.244 23.4771 200.851 23.4771 201.57H23.7327V196.076H23.4771C23.4771 196.794 22.9181 197.417 21.8001 197.928C20.6981 198.439 19.3725 198.695 17.8392 198.695H4.48721L23.7327 185.071V182.596ZM23.7327 156.866H23.4771C23.4771 157.457 23.2056 158.064 22.6786 158.671C22.1355 159.262 21.4488 159.837 20.6023 160.364C19.7558 160.891 18.8295 161.354 17.8392 161.737L0.829766 168.381V169.691L17.8392 176.351C18.8295 176.734 19.7558 177.181 20.6023 177.693C21.4488 178.204 22.1355 178.763 22.6786 179.338C23.2056 179.929 23.4771 180.52 23.4771 181.11H23.7327V175.329H23.4771C23.4771 175.824 23.2695 176.175 22.8383 176.415C22.4071 176.654 21.8481 176.782 21.1613 176.782C20.5065 176.782 19.8676 176.702 19.2607 176.543C18.6698 176.367 17.967 176.143 17.1844 175.824V167.215L17.8872 166.944C19.101 166.497 20.187 166.273 21.1293 166.273C21.8161 166.273 22.3911 166.385 22.8223 166.624C23.2535 166.864 23.4771 167.231 23.4771 167.71H23.7327V156.866ZM16.9289 167.311V175.712L6.19614 171.512L16.9289 167.311ZM23.7327 145.846H23.4771C23.4771 146.564 23.1896 147.171 22.5987 147.682C22.0237 148.194 21.305 148.449 20.4585 148.449H4.10389C3.25741 148.449 2.5387 148.194 1.96373 147.682C1.38876 147.171 1.10128 146.564 1.10128 145.846H0.829765V156.307H1.10128C1.10128 155.588 1.38877 154.981 1.96373 154.454C2.5387 153.943 3.25741 153.688 4.10389 153.688H20.4585C21.305 153.688 22.0237 153.943 22.5987 154.454C23.1896 154.981 23.4771 155.588 23.4771 156.307H23.7327V145.846ZM23.7327 126.712H16.865V126.984C17.983 127.287 19.0371 127.814 20.0433 128.565C21.0335 129.315 21.864 130.194 22.5029 131.216C23.1417 132.254 23.4771 133.308 23.4771 134.41V137.173H4.10389C3.25741 137.173 2.5387 136.918 1.96373 136.407C1.38876 135.896 1.10128 135.289 1.10128 134.57H0.829764L0.829765 145.031H1.10128C1.10128 144.312 1.38876 143.706 1.96373 143.179C2.5387 142.667 3.25741 142.412 4.10389 142.412H20.4585C21.305 142.412 22.0237 142.667 22.5987 143.179C23.1896 143.706 23.4771 144.312 23.4771 145.031H23.7327V126.712ZM23.7327 93.3638H23.4771C23.4771 94.0825 23.1896 94.6894 22.5987 95.2005C22.0237 95.7116 21.305 95.9671 20.4585 95.9671H4.10389C3.25741 95.9671 2.5387 95.7116 1.96373 95.2005C1.38876 94.6894 1.10128 94.0825 1.10128 93.3638H0.829762L0.829763 103.825H1.10128C1.10128 103.106 1.38876 102.484 1.96373 101.972C2.5387 101.461 3.25741 101.206 4.10389 101.206H12.1854V109.703H4.10389C3.25741 109.703 2.5387 109.447 1.96373 108.936C1.38876 108.425 1.10128 107.818 1.10128 107.099H0.829763L0.829764 117.56H1.10128C1.10128 116.842 1.38876 116.235 1.96373 115.708C2.5387 115.197 3.25741 114.941 4.10389 114.941H20.4585C21.305 114.941 22.0237 115.197 22.5987 115.708C23.1896 116.235 23.4771 116.842 23.4771 117.56H23.7327V107.099H23.4771C23.4771 107.818 23.1896 108.425 22.5987 108.936C22.0237 109.447 21.305 109.703 20.4585 109.703H12.4569V101.206H20.4585C21.305 101.206 22.0237 101.461 22.5987 101.972C23.1896 102.484 23.4771 103.106 23.4771 103.825H23.7327V93.3638ZM23.9882 80.986C23.9882 78.8618 23.5091 76.9612 22.5188 75.2842C21.5446 73.6072 20.1711 72.2816 18.4142 71.3074C16.6574 70.3491 14.613 69.854 12.2812 69.854C9.96537 69.854 7.92104 70.3491 6.16419 71.3074C4.40735 72.2816 3.03381 73.6072 2.04359 75.2842C1.06933 76.9612 0.57422 78.8618 0.57422 80.986C0.574221 83.1102 1.06934 84.9948 2.04359 86.6718C3.03381 88.3488 4.40735 89.6744 6.16419 90.6487C7.92104 91.6229 9.96537 92.1021 12.2812 92.1021C14.613 92.1021 16.6574 91.6229 18.4142 90.6487C20.1711 89.6744 21.5446 88.3488 22.5188 86.6718C23.5091 84.9948 23.9882 83.1102 23.9882 80.986ZM23.7327 80.986C23.7327 82.9345 22.7424 84.4039 20.778 85.3941C18.8135 86.3843 15.9866 86.8635 12.2812 86.8635C8.59184 86.8635 5.76491 86.3843 3.78446 85.3941C1.81999 84.4039 0.829762 82.9345 0.829762 80.986C0.829762 79.0215 1.81999 77.5522 3.78446 76.5619C5.76491 75.5877 8.59184 75.0926 12.2812 75.0926C15.9866 75.0926 18.8135 75.5877 20.778 76.5619C22.7424 77.5522 23.7327 79.0215 23.7327 80.986ZM23.9882 56.8693C23.9882 54.218 23.0299 52.2216 21.1134 50.864C19.4044 49.6822 17.2323 49.0753 14.5971 49.0593H4.10389C3.25741 49.0593 2.5387 48.8037 1.96373 48.2927C1.38876 47.7816 1.10128 47.1587 1.10128 46.44H0.82976L0.829761 51.9341H1.10128C1.10128 51.2154 1.38876 50.6085 1.96373 50.0974C2.5387 49.5704 3.25741 49.3148 4.10389 49.3148H14.5971C16.8171 49.3468 18.7496 49.8419 20.4266 50.8002C22.3272 51.8862 23.2855 53.3875 23.2855 55.3201C23.2855 56.6776 22.9501 57.7796 22.2793 58.5942C21.5925 59.4087 20.6183 59.9997 19.3246 60.367C18.0309 60.7184 16.4497 60.8941 14.5971 60.8941H4.10389C3.25741 60.8941 2.5387 60.6385 1.96373 60.1274C1.38876 59.6163 1.10128 59.0094 1.10128 58.2907H0.829761V68.752H1.10128C1.10128 68.0332 1.38876 67.4104 1.96373 66.8993C2.5387 66.3882 3.25741 66.1327 4.10389 66.1327H14.5971C16.849 66.1327 18.6538 65.7813 20.0433 65.0785C21.4168 64.3758 22.423 63.3377 23.0459 61.9641C23.6848 60.5906 23.9882 58.8976 23.9882 56.8693ZM23.9882 36.2024C23.9882 34.2059 23.7167 32.5769 23.1577 31.3311C22.6147 30.0694 21.864 29.143 20.9217 28.5521C19.9794 27.9612 18.9253 27.6737 17.7434 27.6737C16.0025 27.6737 14.5651 28.2966 13.4312 29.5743C12.9041 30.1492 12.4409 30.8041 12.0257 31.5228C11.6104 32.2574 11.2111 33.0081 10.8278 33.7747C9.85357 35.7552 8.9432 37.3842 8.1127 38.662C7.64953 39.3647 7.13844 39.9237 6.56347 40.3549C5.98851 40.8021 5.30174 41.0097 4.50317 41.0097C3.84835 41.0097 3.24144 40.866 2.68244 40.5785C2.12344 40.2751 1.67624 39.8119 1.34085 39.205C1.00545 38.5821 0.82976 37.7676 0.82976 36.7933C0.82976 35.6913 1.18113 34.6531 1.8679 33.647C2.55467 32.6408 3.41712 31.7783 4.47123 31.0596C5.50937 30.3249 6.57945 29.8138 7.71341 29.4944V29.159H1.10128V29.4944C1.27696 29.4944 1.48459 29.5263 1.69222 29.5902C1.89984 29.6541 2.0915 29.7659 2.23524 29.9097C2.39495 30.0534 2.45884 30.261 2.45884 30.5325C2.45884 30.82 2.28315 31.2992 1.89984 32.0019C1.38876 32.9762 1.00545 33.9025 0.797817 34.7969C0.654075 35.3878 0.574218 36.0586 0.574219 36.7933C0.574219 38.4863 0.861703 39.9397 1.45265 41.1695C2.02761 42.3992 2.81021 43.3416 3.80043 44.0124C4.80663 44.6672 5.92462 45.0026 7.17039 45.0026C8.71961 45.0026 10.0612 44.4116 11.1952 43.2298C11.9618 42.4152 12.8562 41.1215 13.8624 39.3487C14.07 38.9654 14.2936 38.5981 14.5172 38.2307C14.7248 37.8634 14.9484 37.496 15.1561 37.1287C15.6512 36.2503 16.1623 35.4038 16.6893 34.6212C17.2164 33.8386 17.7913 33.1998 18.4142 32.6887C19.0371 32.1936 19.7398 31.938 20.5384 31.938C21.5446 31.938 22.3272 32.3054 22.8862 33.0241C23.4452 33.7428 23.7327 34.8129 23.7327 36.2024C23.7327 37.2405 23.3813 38.3425 22.6945 39.5084C22.0078 40.6743 21.1453 41.7125 20.1072 42.6069C19.069 43.5013 17.983 44.1082 16.865 44.4436V44.779H23.4771V44.4436C23.2855 44.4436 23.0938 44.4116 22.8862 44.3478C22.6626 44.2839 22.4869 44.1721 22.3432 44.0283C22.1834 43.8846 22.1036 43.677 22.1036 43.4054C22.1036 43.118 22.2952 42.527 22.6786 41.6007C23.1896 40.3549 23.557 39.2369 23.7806 38.2467C23.9243 37.5919 23.9882 36.9211 23.9882 36.2024ZM23.7327 7.59766H16.865V7.86917C17.983 8.17262 19.0371 8.69968 20.0433 9.45033C21.0335 10.201 21.864 11.0794 22.5029 12.1016C23.1417 13.1398 23.4771 14.1939 23.4771 15.2959V18.0589H12.4569V15.0563C12.4569 13.6987 12.7124 12.5169 13.2235 11.5426C13.7346 10.5684 14.3415 10.0733 15.0602 10.0733V9.81767H9.56609V10.0733C10.2848 10.0733 10.9077 10.5684 11.4188 11.5426C11.9298 12.5169 12.1854 13.6987 12.1854 15.0563V18.0589H1.10127V15.2959C1.10127 14.1939 1.4207 13.1398 2.05956 12.1016C2.71438 11.0794 3.52892 10.201 4.53511 9.45033C5.52534 8.69968 6.59542 8.17262 7.71341 7.86917V7.59766H0.829759L0.82976 25.9168H1.10128C1.10128 25.1981 1.38876 24.5752 1.96373 24.0641C2.5387 23.5531 3.25741 23.2975 4.10389 23.2975H20.4585C21.305 23.2975 22.0237 23.5531 22.5987 24.0641C23.1896 24.5752 23.4771 25.1981 23.4771 25.9168H23.7327V7.59766Z" fill="#EABD6E"/>
<path d="M149.694 192.592V191.769C145.066 191.769 141.26 187.552 141.26 182.049V129.387C141.26 123.936 145.066 119.719 149.694 119.719V118.844H116.009V119.719C120.586 119.719 124.392 123.936 124.392 129.387V155.41H97.0322V129.387C97.0322 123.936 100.838 119.719 105.467 119.719V118.844H71.7812V119.719C76.3583 119.719 80.1639 123.936 80.1639 129.387V182.049C80.1639 187.552 76.3583 191.769 71.7812 191.769V192.592H105.467V191.769C100.838 191.769 97.0322 187.552 97.0322 182.049V156.284H124.392V182.049C124.392 187.552 120.586 191.769 116.009 191.769V192.592H149.694Z" fill="#EABD6E"/>
<path d="M94.3903 89.7356V88.9128C89.7618 88.9128 85.4419 80.7358 85.4419 70.8617C85.4419 80.7358 81.3277 88.9128 76.6992 88.9128V89.7356H94.3903ZM137.796 89.7356L137.693 69.8845C112.133 33.988 124.939 51.9363 99.3788 15.9883H76.6992V16.8626C79.1677 16.8626 82.2534 22.0053 87.7047 29.9766L129.876 89.7356H137.796ZM137.487 33.7823C137.796 24.4224 141.756 16.8626 146.23 16.8626V15.9883H128.539V16.8626C132.91 16.8626 137.076 24.5767 137.487 33.7823Z" fill="#EABD6E"/>
<path d="M149.471 103.871H70.9688V104.749H149.471V103.871Z" fill="#EABD6E"/>
<path d="M175.197 0.730469H47.418V208.102H175.197V0.730469Z" stroke="#EABD6E" stroke-width="0.8777"/>
</svg>
