<svg width="176" height="209" viewBox="0 0 176 209" fill="none" xmlns="http://www.w3.org/2000/svg">
<path d="M24.0022 182.303H6.99272C5.45947 182.303 4.14982 182.047 3.0478 181.536C1.9298 181.025 1.37081 180.402 1.37081 179.683H1.09929V185.178H1.37081C1.37081 184.475 1.9298 183.852 3.0478 183.341C4.14982 182.83 5.45947 182.574 6.99272 182.574H17.5178L1.09929 194.249L1.0993 201.277H1.37081C1.37081 200.798 1.65829 200.366 2.23326 199.967C2.79226 199.568 3.52694 199.248 4.43731 199.009C5.34767 198.785 6.30595 198.657 7.32812 198.657H18.1088C19.642 198.657 20.9676 198.913 22.0697 199.424C23.1877 199.951 23.7467 200.558 23.7467 201.277H24.0022V195.783H23.7467C23.7467 196.501 23.1877 197.124 22.0697 197.635C20.9676 198.146 19.642 198.402 18.1088 198.402H4.75673L24.0022 184.778V182.303ZM24.0022 156.573H23.7467C23.7467 157.164 23.4751 157.771 22.9481 158.378C22.4051 158.969 21.7183 159.544 20.8718 160.071C20.0253 160.598 19.099 161.061 18.1088 161.444L1.09929 168.088V169.398L18.1088 176.058C19.099 176.441 20.0253 176.888 20.8718 177.4C21.7183 177.911 22.4051 178.47 22.9481 179.045C23.4751 179.636 23.7467 180.226 23.7467 180.817H24.0022V175.036H23.7467C23.7467 175.531 23.539 175.882 23.1078 176.122C22.6766 176.361 22.1176 176.489 21.4308 176.489C20.776 176.489 20.1371 176.409 19.5302 176.25C18.9393 176.074 18.2365 175.85 17.4539 175.531V166.922L18.1567 166.651C19.3705 166.204 20.4566 165.98 21.3989 165.98C22.0856 165.98 22.6606 166.092 23.0918 166.331C23.5231 166.571 23.7467 166.938 23.7467 167.417H24.0022V156.573ZM17.1984 167.018V175.419L6.46566 171.219L17.1984 167.018ZM24.0022 145.553H23.7467C23.7467 146.271 23.4592 146.878 22.8682 147.389C22.2933 147.9 21.5746 148.156 20.7281 148.156H4.37342C3.52694 148.156 2.80823 147.9 2.23326 147.389C1.65829 146.878 1.37081 146.271 1.37081 145.553H1.09929V156.014H1.37081C1.37081 155.295 1.65829 154.688 2.23326 154.161C2.80823 153.65 3.52694 153.395 4.37342 153.395H20.7281C21.5746 153.395 22.2933 153.65 22.8682 154.161C23.4592 154.688 23.7467 155.295 23.7467 156.014H24.0022V145.553ZM24.0022 126.419H17.1345V126.691C18.2525 126.994 19.3066 127.521 20.3128 128.272C21.303 129.022 22.1335 129.901 22.7724 130.923C23.4113 131.961 23.7467 133.015 23.7467 134.117V136.88H4.37342C3.52694 136.88 2.80823 136.625 2.23326 136.114C1.65829 135.603 1.37081 134.996 1.37081 134.277H1.09929V144.738H1.37081C1.37081 144.019 1.65829 143.413 2.23326 142.885C2.80823 142.374 3.52694 142.119 4.37342 142.119H20.7281C21.5746 142.119 22.2933 142.374 22.8682 142.885C23.4592 143.413 23.7467 144.019 23.7467 144.738H24.0022V126.419ZM24.0022 93.0708H23.7467C23.7467 93.7895 23.4592 94.3964 22.8682 94.9075C22.2933 95.4186 21.5746 95.6741 20.7281 95.6741H4.37342C3.52693 95.6741 2.80822 95.4186 2.23326 94.9075C1.65829 94.3964 1.3708 93.7895 1.3708 93.0708H1.09929V103.532H1.3708C1.3708 102.813 1.65829 102.191 2.23326 101.679C2.80822 101.168 3.52693 100.913 4.37342 100.913H12.4549V109.41H4.37342C3.52694 109.41 2.80822 109.154 2.23326 108.643C1.65829 108.132 1.3708 107.525 1.3708 106.806H1.09929V117.267H1.3708C1.3708 116.549 1.65829 115.942 2.23326 115.415C2.80823 114.904 3.52694 114.648 4.37342 114.648H20.7281C21.5746 114.648 22.2933 114.904 22.8682 115.415C23.4592 115.942 23.7467 116.549 23.7467 117.267H24.0022V106.806H23.7467C23.7467 107.525 23.4592 108.132 22.8682 108.643C22.2933 109.154 21.5746 109.41 20.7281 109.41H12.7264V100.913H20.7281C21.5746 100.913 22.2933 101.168 22.8682 101.679C23.4592 102.191 23.7467 102.813 23.7467 103.532H24.0022V93.0708ZM24.2577 80.693C24.2577 78.5688 23.7786 76.6682 22.7884 74.9912C21.8141 73.3142 20.4406 71.9886 18.6837 71.0144C16.9269 70.0561 14.8826 69.561 12.5507 69.561C10.2349 69.561 8.19057 70.0561 6.43372 71.0144C4.67687 71.9886 3.30333 73.3142 2.31311 74.9912C1.33886 76.6682 0.843751 78.5688 0.843751 80.693C0.843752 82.8172 1.33886 84.7018 2.31311 86.3788C3.30334 88.0558 4.67687 89.3814 6.43372 90.3557C8.19057 91.3299 10.2349 91.809 12.5507 91.809C14.8826 91.809 16.9269 91.3299 18.6837 90.3557C20.4406 89.3814 21.8141 88.0558 22.7884 86.3788C23.7786 84.7018 24.2577 82.8172 24.2577 80.693ZM24.0022 80.693C24.0022 82.6415 23.012 84.1109 21.0475 85.1011C19.083 86.0913 16.2561 86.5704 12.5507 86.5704C8.86136 86.5704 6.03443 86.0913 4.05399 85.1011C2.08951 84.1109 1.09929 82.6415 1.09929 80.693C1.09929 78.7285 2.08951 77.2592 4.05399 76.2689C6.03443 75.2947 8.86136 74.7996 12.5507 74.7996C16.2561 74.7996 19.083 75.2947 21.0475 76.2689C23.012 77.2591 24.0022 78.7285 24.0022 80.693ZM24.2577 56.5763C24.2577 53.925 23.2995 51.9286 21.3829 50.571C19.674 49.3892 17.5019 48.7822 14.8666 48.7663H4.37341C3.52693 48.7663 2.80822 48.5107 2.23325 47.9996C1.65829 47.4886 1.3708 46.8657 1.3708 46.147H1.09929V51.6411H1.3708C1.3708 50.9224 1.65829 50.3155 2.23325 49.8044C2.80822 49.2774 3.52693 49.0218 4.37341 49.0218H14.8666C17.0866 49.0538 19.0191 49.5489 20.6961 50.5071C22.5967 51.5932 23.555 53.0945 23.555 55.027C23.555 56.3846 23.2196 57.4866 22.5488 58.3012C21.862 59.1157 20.8878 59.7066 19.5941 60.074C18.3004 60.4254 16.7193 60.601 14.8666 60.601H4.37341C3.52693 60.601 2.80822 60.3455 2.23325 59.8344C1.65829 59.3233 1.3708 58.7164 1.3708 57.9977H1.09929V68.4589H1.3708C1.3708 67.7402 1.65829 67.1173 2.23325 66.6063C2.80822 66.0952 3.52693 65.8396 4.37341 65.8396H14.8666C17.1185 65.8396 18.9233 65.4883 20.3128 64.7855C21.6863 64.0828 22.6925 63.0447 23.3154 61.6711C23.9543 60.2976 24.2577 58.6046 24.2577 56.5763ZM24.2577 35.9094C24.2577 33.9129 23.9862 32.2839 23.4272 31.0381C22.8842 29.7764 22.1335 28.85 21.1912 28.2591C20.2489 27.6681 19.1948 27.3807 18.0129 27.3807C16.2721 27.3807 14.8346 28.0035 13.7007 29.2812C13.1736 29.8562 12.7105 30.511 12.2952 31.2297C11.8799 31.9644 11.4807 32.7151 11.0973 33.4817C10.1231 35.4622 9.21273 37.0912 8.38222 38.3689C7.91905 39.0717 7.40797 39.6307 6.833 40.0619C6.25803 40.5091 5.57126 40.7167 4.7727 40.7167C4.11787 40.7167 3.51096 40.573 2.95196 40.2855C2.39297 39.982 1.94577 39.5189 1.61037 38.912C1.27497 38.2891 1.09929 37.4745 1.09929 36.5003C1.09929 35.3983 1.45066 34.3601 2.13743 33.3539C2.82419 32.3477 3.68665 31.4853 4.74075 30.7666C5.77889 30.0319 6.84897 29.5208 7.98294 29.2014V28.866H1.3708V29.2014C1.54649 29.2014 1.75411 29.2333 1.96174 29.2972C2.16937 29.3611 2.36102 29.4729 2.50477 29.6166C2.66448 29.7604 2.72836 29.968 2.72836 30.2395C2.72836 30.527 2.55268 31.0061 2.16937 31.7089C1.65828 32.6831 1.27497 33.6095 1.06735 34.5039C0.923606 35.0948 0.843749 35.7656 0.84375 36.5003C0.84375 38.1933 1.13123 39.6466 1.72217 40.8764C2.29714 42.1062 3.07973 43.0485 4.06996 43.7193C5.07615 44.3742 6.19415 44.7096 7.43991 44.7096C8.98913 44.7096 10.3307 44.1186 11.4647 42.9367C12.2313 42.1222 13.1257 40.8285 14.1319 39.0557C14.3395 38.6724 14.5631 38.3051 14.7867 37.9377C14.9944 37.5704 15.218 37.203 15.4256 36.8357C15.9207 35.9573 16.4318 35.1108 16.9588 34.3282C17.4859 33.5456 18.0609 32.9067 18.6837 32.3957C19.3066 31.9005 20.0094 31.645 20.8079 31.645C21.8141 31.645 22.5967 32.0123 23.1557 32.7311C23.7147 33.4498 24.0022 34.5198 24.0022 35.9094C24.0022 36.9475 23.6508 38.0495 22.9641 39.2154C22.2773 40.3813 21.4148 41.4195 20.3767 42.3139C19.3386 43.2083 18.2525 43.8152 17.1345 44.1506V44.486H23.7467V44.1506C23.555 44.1506 23.3633 44.1186 23.1557 44.0547C22.9321 43.9908 22.7564 43.8791 22.6127 43.7353C22.453 43.5916 22.3731 43.3839 22.3731 43.1124C22.3731 42.8249 22.5648 42.234 22.9481 41.3077C23.4592 40.0619 23.8265 38.9439 24.0501 37.9537C24.1938 37.2989 24.2577 36.6281 24.2577 35.9094ZM24.0022 7.30469H17.1345V7.5762C18.2525 7.87966 19.3066 8.40671 20.3128 9.15737C21.303 9.90802 22.1335 10.7864 22.7724 11.8086C23.4113 12.8467 23.7467 13.9008 23.7467 15.0029V17.7659H12.7264V14.7633C12.7264 13.4057 12.982 12.2239 13.493 11.2496C14.0041 10.2753 14.611 9.78025 15.3298 9.78025V9.52471H9.83561V9.78025C10.5543 9.78025 11.1772 10.2753 11.6883 11.2496C12.1994 12.2239 12.4549 13.4057 12.4549 14.7633V17.7659H1.3708V15.0029C1.3708 13.9008 1.69023 12.8467 2.32908 11.8086C2.98391 10.7864 3.79844 9.90802 4.80464 9.15737C5.79486 8.40671 6.86494 7.87966 7.98294 7.5762V7.30469H1.09929V25.6238H1.3708C1.3708 24.9051 1.65828 24.2822 2.23325 23.7711C2.80822 23.2601 3.52693 23.0045 4.37341 23.0045H20.7281C21.5745 23.0045 22.2933 23.2601 22.8682 23.7711C23.4592 24.2822 23.7467 24.9051 23.7467 25.6238H24.0022V7.30469Z" fill="url(#paint0_linear)"/>
<path d="M149.96 192.299V191.476C145.332 191.476 141.526 187.259 141.526 181.756V129.094C141.526 123.643 145.332 119.426 149.96 119.426V118.551H116.275V119.426C120.852 119.426 124.658 123.643 124.658 129.094V155.117H97.2979V129.094C97.2979 123.643 101.104 119.426 105.732 119.426V118.551H72.0469V119.426C76.624 119.426 80.4296 123.643 80.4296 129.094V181.756C80.4296 187.259 76.624 191.476 72.0469 191.476V192.299H105.732V191.476C101.104 191.476 97.2979 187.259 97.2979 181.756V155.991H124.658V181.756C124.658 187.259 120.852 191.476 116.275 191.476V192.299H149.96Z" fill="url(#paint1_linear)"/>
<path d="M94.6521 89.4465V88.6237C90.0236 88.6237 85.7036 80.4467 85.7036 70.5725C85.7036 80.4467 81.5894 88.6237 76.9609 88.6237V89.4465H94.6521ZM138.057 89.4465L137.954 69.5954C112.395 33.6989 125.2 51.6471 99.6406 15.6992H76.9609V16.5734C79.4295 16.5734 82.5151 21.7162 87.9665 29.6875L130.137 89.4465H138.057ZM137.749 33.4932C138.057 24.1333 142.017 16.5734 146.491 16.5734V15.6992H128.8V16.5734C133.172 16.5734 137.337 24.2876 137.749 33.4932Z" fill="url(#paint2_linear)"/>
<path d="M149.737 103.578H71.2344V104.456H149.737V103.578Z" fill="url(#paint3_linear)"/>
<path d="M175.466 0.4375H47.6875V207.81H175.466V0.4375Z" stroke="url(#paint4_linear)" stroke-width="0.8777"/>
<defs>
<linearGradient id="paint0_linear" x1="12.5507" y1="7.30469" x2="12.5507" y2="201.277" gradientUnits="userSpaceOnUse">
<stop stop-color="#005EC1"/>
<stop offset="1" stop-color="#0051A7"/>
</linearGradient>
<linearGradient id="paint1_linear" x1="111.003" y1="118.551" x2="111.003" y2="192.299" gradientUnits="userSpaceOnUse">
<stop stop-color="#005EC1"/>
<stop offset="1" stop-color="#0051A7"/>
</linearGradient>
<linearGradient id="paint2_linear" x1="111.726" y1="15.6992" x2="111.726" y2="89.4465" gradientUnits="userSpaceOnUse">
<stop stop-color="#005EC1"/>
<stop offset="1" stop-color="#0051A7"/>
</linearGradient>
<linearGradient id="paint3_linear" x1="110.486" y1="103.578" x2="110.486" y2="104.456" gradientUnits="userSpaceOnUse">
<stop stop-color="#005EC1"/>
<stop offset="1" stop-color="#0051A7"/>
</linearGradient>
<linearGradient id="paint4_linear" x1="111.577" y1="0.4375" x2="111.577" y2="207.81" gradientUnits="userSpaceOnUse">
<stop stop-color="#005EC1"/>
<stop offset="1" stop-color="#0051A7"/>
</linearGradient>
</defs>
</svg>
