<svg width="416" height="51" viewBox="0 0 416 51" fill="none" xmlns="http://www.w3.org/2000/svg">
<path d="M12.2617 49.999V49.4521C9.18555 49.4521 6.31445 44.0176 6.31445 37.4551C6.31445 44.0176 3.58008 49.4521 0.503906 49.4521V49.999H12.2617ZM41.1094 49.999L41.041 36.8056C24.0537 12.9482 32.5645 24.8769 15.5771 0.985351H0.503906V1.5664C2.14453 1.5664 4.19531 4.98437 7.81836 10.2822L35.8457 49.999H41.1094ZM40.9043 12.8115C41.1094 6.59082 43.7412 1.5664 46.7148 1.5664V0.985351H34.957V1.5664C37.8623 1.5664 40.6309 6.69336 40.9043 12.8115ZM56.6611 49.999V49.4521C54.5078 49.4521 53.3799 47.2304 53.3799 44.0859C53.3799 42.5478 53.6533 40.7705 54.2344 38.9248C51.7393 44.5644 47.8428 49.4521 44.2881 49.4521V49.999H56.6611ZM96.1729 49.999V49.4521C92.3447 49.4521 88.209 43.6416 85.748 37.3867L71.4951 0.985351H68.7266L64.5908 11.7861L74.6055 37.4892C75.5625 39.9844 76.041 42.4111 76.041 44.4277C76.041 47.4013 75.0156 49.4521 72.9648 49.4521V49.999H96.1729ZM119.757 49.999V49.4521C116.681 49.4521 114.186 46.6494 114.186 42.9922V7.99218C114.186 4.36914 116.681 1.5664 119.757 1.5664V0.985351H97.3691V1.5664C100.445 1.5664 102.975 4.36914 102.975 7.99218V42.9922C102.975 46.6494 100.445 49.4521 97.3691 49.4521V49.999H119.757ZM160.704 49.999V35.3017H160.123C158.38 41.8301 152.296 48.9736 145.768 49.999H160.704ZM138.282 49.999V7.99218C138.282 4.36914 140.846 1.5664 143.888 1.5664V0.985351H121.5V1.5664C124.576 1.5664 127.105 4.36914 127.105 7.99218V42.9922C127.105 46.6494 124.576 49.4521 121.5 49.4521V49.999H138.282ZM232.071 49.999V49.4521C228.995 49.4521 226.466 46.6494 226.466 42.9922V7.99218C226.466 4.36914 228.995 1.5664 232.071 1.5664V0.985351H209.684V1.5664C212.726 1.5664 215.255 4.36914 215.255 7.99218V25.2871H197.071V7.99218C197.071 4.36914 199.601 1.5664 202.677 1.5664V0.985351H180.289V1.5664C183.331 1.5664 185.86 4.36914 185.86 7.99218V42.9922C185.86 46.6494 183.331 49.4521 180.289 49.4521V49.999H202.677V49.4521C199.601 49.4521 197.071 46.6494 197.071 42.9922V25.8681H215.255V42.9922C215.255 46.6494 212.726 49.4521 209.684 49.4521V49.999H232.071ZM259.791 50.5459C272.813 49.9306 282.384 39.9844 282.384 25.4922C282.384 11.1367 272.916 1.19043 260.064 0.472656C267.447 1.5664 271.173 10.6582 271.173 25.4922C271.173 40.5312 267.345 49.6572 259.791 50.5459ZM257.33 50.5459C249.776 49.6572 245.982 40.5312 245.982 25.4922C245.982 10.6582 249.674 1.5664 257.057 0.472656C244.205 1.19043 234.771 11.1367 234.771 25.4922C234.771 39.9844 244.342 49.9306 257.33 50.5459ZM310.172 50.5459C310.821 50.5459 311.437 50.5117 312.018 50.4775C304.361 49.5888 301.524 41.6592 301.524 30.4482V7.99218C301.524 4.36914 304.088 1.53222 307.13 1.53222V0.985351H284.742V1.53222C287.818 1.53222 290.348 4.36914 290.348 7.99218V30.4482C290.348 44.872 297.184 50.5459 310.172 50.5459ZM326.681 8.02636C326.681 4.40332 329.415 1.53222 332.491 1.53222V0.985351H320.733V1.53222C323.81 1.53222 326.681 4.40332 326.681 8.02636ZM369.474 15.956V1.80566H368.756C368.756 2.96777 368.243 4.71093 366.534 4.71093C364.723 4.71093 362.125 2.31836 357.647 1.22461C362.843 3.82226 367.252 10.4189 368.756 15.956H369.474ZM350.23 50.375C344.42 47.914 338.302 41.1806 336.764 35.541H336.046V49.6914H336.764C336.764 48.4951 337.276 46.7519 338.985 46.7519C340.865 46.7519 345.001 49.3496 350.23 50.375ZM358.707 50.5459C368.448 49.3496 372.652 44.0176 372.652 37.4209C372.652 27.4746 363.185 24.7744 355.528 20.5019C349.752 17.289 344.112 14.7256 344.112 9.08593C344.112 6.04394 345.548 2.66015 348.727 1.05371C340.489 2.48925 335.567 7.958 335.567 14.7939C335.567 23.1338 343.395 26.5176 350.094 30.5166C356.28 34.208 363.526 37.5576 363.526 43.4023C363.526 46.5127 361.886 49.2812 358.707 50.5459ZM415.616 49.999V35.3017H415.035C413.155 42.3428 406.217 49.999 399.142 49.999H415.616ZM393.194 49.999V25.4922H393.263L393.194 0.985351H376.412V1.5664C379.488 1.5664 382.018 4.36914 382.018 7.99218V42.9922C382.018 46.6494 379.488 49.4521 376.412 49.4521V49.999H393.194ZM410.865 31.4394V19.6816H410.318C410.318 22.792 405.499 25.4922 399.654 25.4922C405.499 25.4922 410.318 28.3974 410.318 31.4394H410.865ZM415.616 15.7168V0.985351H399.142C406.217 0.985351 413.155 8.67578 415.035 15.7168H415.616Z" fill="url(#paint0_linear)"/>
<defs>
<linearGradient id="paint0_linear" x1="-33.0494" y1="36.6354" x2="430.559" y2="112.322" gradientUnits="userSpaceOnUse">
<stop stop-color="#005EC1"/>
<stop offset="1" stop-color="#0051A7"/>
</linearGradient>
</defs>
</svg>
