<svg width="416" height="51" viewBox="0 0 416 51" fill="none" xmlns="http://www.w3.org/2000/svg">
<path d="M11.7617 49.999V49.4521C8.68555 49.4521 5.81445 44.0176 5.81445 37.4551C5.81445 44.0176 3.08008 49.4521 0.00390625 49.4521V49.999H11.7617ZM40.6094 49.999L40.541 36.8056C23.5537 12.9482 32.0645 24.8769 15.0771 0.985351H0.00390625V1.5664C1.64453 1.5664 3.69531 4.98437 7.31836 10.2822L35.3457 49.999H40.6094ZM40.4043 12.8115C40.6094 6.59082 43.2412 1.5664 46.2148 1.5664V0.985351H34.457V1.5664C37.3623 1.5664 40.1309 6.69336 40.4043 12.8115ZM56.1611 49.999V49.4521C54.0078 49.4521 52.8799 47.2304 52.8799 44.0859C52.8799 42.5478 53.1533 40.7705 53.7344 38.9248C51.2393 44.5644 47.3428 49.4521 43.7881 49.4521V49.999H56.1611ZM95.6729 49.999V49.4521C91.8447 49.4521 87.709 43.6416 85.248 37.3867L70.9951 0.985351H68.2266L64.0908 11.7861L74.1055 37.4892C75.0625 39.9844 75.541 42.4111 75.541 44.4277C75.541 47.4013 74.5156 49.4521 72.4648 49.4521V49.999H95.6729ZM119.257 49.999V49.4521C116.181 49.4521 113.686 46.6494 113.686 42.9922V7.99218C113.686 4.36914 116.181 1.5664 119.257 1.5664V0.985351H96.8691V1.5664C99.9453 1.5664 102.475 4.36914 102.475 7.99218V42.9922C102.475 46.6494 99.9453 49.4521 96.8691 49.4521V49.999H119.257ZM160.204 49.999V35.3017H159.623C157.88 41.8301 151.796 48.9736 145.268 49.999H160.204ZM137.782 49.999V7.99218C137.782 4.36914 140.346 1.5664 143.388 1.5664V0.985351H121V1.5664C124.076 1.5664 126.605 4.36914 126.605 7.99218V42.9922C126.605 46.6494 124.076 49.4521 121 49.4521V49.999H137.782ZM231.571 49.999V49.4521C228.495 49.4521 225.966 46.6494 225.966 42.9922V7.99218C225.966 4.36914 228.495 1.5664 231.571 1.5664V0.985351H209.184V1.5664C212.226 1.5664 214.755 4.36914 214.755 7.99218V25.2871H196.571V7.99218C196.571 4.36914 199.101 1.5664 202.177 1.5664V0.985351H179.789V1.5664C182.831 1.5664 185.36 4.36914 185.36 7.99218V42.9922C185.36 46.6494 182.831 49.4521 179.789 49.4521V49.999H202.177V49.4521C199.101 49.4521 196.571 46.6494 196.571 42.9922V25.8681H214.755V42.9922C214.755 46.6494 212.226 49.4521 209.184 49.4521V49.999H231.571ZM259.291 50.5459C272.313 49.9306 281.884 39.9844 281.884 25.4922C281.884 11.1367 272.416 1.19043 259.564 0.472656C266.947 1.5664 270.673 10.6582 270.673 25.4922C270.673 40.5312 266.845 49.6572 259.291 50.5459ZM256.83 50.5459C249.276 49.6572 245.482 40.5312 245.482 25.4922C245.482 10.6582 249.174 1.5664 256.557 0.472656C243.705 1.19043 234.271 11.1367 234.271 25.4922C234.271 39.9844 243.842 49.9306 256.83 50.5459ZM309.672 50.5459C310.321 50.5459 310.937 50.5117 311.518 50.4775C303.861 49.5888 301.024 41.6592 301.024 30.4482V7.99218C301.024 4.36914 303.588 1.53222 306.63 1.53222V0.985351H284.242V1.53222C287.318 1.53222 289.848 4.36914 289.848 7.99218V30.4482C289.848 44.872 296.684 50.5459 309.672 50.5459ZM326.181 8.02636C326.181 4.40332 328.915 1.53222 331.991 1.53222V0.985351H320.233V1.53222C323.31 1.53222 326.181 4.40332 326.181 8.02636ZM368.974 15.956V1.80566H368.256C368.256 2.96777 367.743 4.71093 366.034 4.71093C364.223 4.71093 361.625 2.31836 357.147 1.22461C362.343 3.82226 366.752 10.4189 368.256 15.956H368.974ZM349.73 50.375C343.92 47.914 337.802 41.1806 336.264 35.541H335.546V49.6914H336.264C336.264 48.4951 336.776 46.7519 338.485 46.7519C340.365 46.7519 344.501 49.3496 349.73 50.375ZM358.207 50.5459C367.948 49.3496 372.152 44.0176 372.152 37.4209C372.152 27.4746 362.685 24.7744 355.028 20.5019C349.252 17.289 343.612 14.7256 343.612 9.08593C343.612 6.04394 345.048 2.66015 348.227 1.05371C339.989 2.48925 335.067 7.958 335.067 14.7939C335.067 23.1338 342.895 26.5176 349.594 30.5166C355.78 34.208 363.026 37.5576 363.026 43.4023C363.026 46.5127 361.386 49.2812 358.207 50.5459ZM415.116 49.999V35.3017H414.535C412.655 42.3428 405.717 49.999 398.642 49.999H415.116ZM392.694 49.999V25.4922H392.763L392.694 0.985351H375.912V1.5664C378.988 1.5664 381.518 4.36914 381.518 7.99218V42.9922C381.518 46.6494 378.988 49.4521 375.912 49.4521V49.999H392.694ZM410.365 31.4394V19.6816H409.818C409.818 22.792 404.999 25.4922 399.154 25.4922C404.999 25.4922 409.818 28.3974 409.818 31.4394H410.365ZM415.116 15.7168V0.985351H398.642C405.717 0.985351 412.655 8.67578 414.535 15.7168H415.116Z" fill="#E4B768"/>
</svg>
